<?xml version="1.0" encoding="UTF-8" standalone="no"?>
<svg
   xmlns:dc="http://purl.org/dc/elements/1.1/"
   xmlns:cc="http://creativecommons.org/ns#"
   xmlns:rdf="http://www.w3.org/1999/02/22-rdf-syntax-ns#"
   xmlns:svg="http://www.w3.org/2000/svg"
   xmlns="http://www.w3.org/2000/svg"
   xmlns:sodipodi="http://sodipodi.sourceforge.net/DTD/sodipodi-0.dtd"
   xmlns:inkscape="http://www.inkscape.org/namespaces/inkscape"
   id="Capa_1"
   enable-background="new 0 0 512 512"
   height="512"
   viewBox="0 0 512 512"
   width="512"
   version="1.1"
   sodipodi:docname="food.svg"
   inkscape:version="1.0.2-2 (e86c870879, 2021-01-15)">
  <metadata
     id="metadata1434">
    <rdf:RDF>
      <cc:Work
         rdf:about="">
        <dc:format>image/svg+xml</dc:format>
        <dc:type
           rdf:resource="http://purl.org/dc/dcmitype/StillImage" />
      </cc:Work>
    </rdf:RDF>
  </metadata>
  <defs
     id="defs1432" />
  <sodipodi:namedview
     pagecolor="#ffffff"
     bordercolor="#666666"
     borderopacity="1"
     objecttolerance="10"
     gridtolerance="10"
     guidetolerance="10"
     inkscape:pageopacity="0"
     inkscape:pageshadow="2"
     inkscape:window-width="1366"
     inkscape:window-height="705"
     id="namedview1430"
     showgrid="false"
     inkscape:zoom="1.0507812"
     inkscape:cx="256"
     inkscape:cy="256"
     inkscape:window-x="-8"
     inkscape:window-y="-8"
     inkscape:window-maximized="1"
     inkscape:current-layer="Capa_1" />
  <g
     id="g1427"
     style="fill:#ff9f0f;fill-opacity:1">
    <path
       d="m505.771 33.832c-3.911-2.819-8.939-3.586-13.514-2.062-52.379 17.459-89.743 62.317-98.361 115.513-37.689-36.941-87.562-56.283-137.896-56.283-38.125 0-74.73 10.739-106 30.698 0-7.633 0-68.009 0-75.698 0-8.284-6.716-15-15-15s-15 6.716-15 15v60c0 8.271-6.729 15-15 15h-15v-75c0-8.284-6.716-15-15-15s-15 6.716-15 15v75h-15c-8.271 0-15-6.729-15-15 0-7.259 0-52.693 0-60 0-8.284-6.716-15-15-15s-15 6.716-15 15v90c0 23.676 11.306 45.937 30 60v240c0 24.813 20.187 45 45 45s45-20.187 45-45v-9.452c37.303 35.592 86.251 54.452 136 54.452 65.986 0 129.352-33.511 166-91.377v46.377c0 24.813 20.187 45 45 45s45-20.187 45-45v-390c0-4.822-2.317-9.349-6.229-12.168zm-430.771 417.168c-8.271 0-15-6.729-15-15v-248.027c0-5.354-2.854-10.303-7.489-12.984-9.995-5.782-17.242-15.151-20.531-25.917 4.124 1.249 8.493 1.928 13.02 1.928h60c4.527 0 8.896-.679 13.021-1.928-3.289 10.766-10.536 20.135-20.531 25.917-4.636 2.681-7.49 7.63-7.49 12.984v248.027c0 8.271-6.729 15-15 15zm181 0c-54.523 0-105.023-26.134-136-70.124v-184.876c11.265-8.475 19.842-19.928 24.884-32.872 29.971-26.811 70.262-42.128 111.116-42.128 54.523 0 105.023 26.134 136 70.124v124.876c0 8.284 6.716 14.99 15 14.99h8.754c-19.923 69.519-85.65 120.01-159.754 120.01zm226-15c0 8.271-6.729 15-15 15s-15-6.729-15-15v-120c0-8.284-6.716-15-15-15h-15c0-20.11 0-113.311 0-130.132 0-42.974 23.414-81.7 60-101.972z"
       id="path1423"
       style="fill:#ff9f0f;fill-opacity:1" />
    <path
       d="m256 181c-58.448 0-106 47.103-106 105s47.552 105 106 105 106-47.103 106-105-47.552-105-106-105zm0 180c-41.906 0-76-33.645-76-75s34.094-75 76-75 76 33.645 76 75-34.094 75-76 75z"
       id="path1425"
       style="fill:#ff9f0f;fill-opacity:1" />
  </g>
</svg>
