<svg id="Layer_1" enable-background="new 0 0 512.129 512.129" height="512" viewBox="0 0 512.129 512.129" width="512" xmlns="http://www.w3.org/2000/svg"><g><path d="m511.452 239.499c-4.143-64.83-32.539-125.13-79.964-169.81-47.657-44.898-109.98-69.624-175.488-69.624-68.38 0-132.667 26.629-181.02 74.98-48.351 48.352-74.98 112.64-74.98 181.02s26.629 132.667 74.98 181.02c48.353 48.352 112.64 74.98 181.02 74.98 64.445 0 126.021-24.031 173.387-67.668 47.063-43.356 76.042-102.2 81.606-165.703.182-1.668 2.142-20.508.459-39.195zm-496.452 16.566c0-64.374 25.068-124.894 70.588-170.413 45.518-45.519 106.039-70.587 170.412-70.587 61.586 0 120.179 23.216 165.019 65.374l-111.088 111.088c-10.863-14.576-36.641-13.598-42.356 6.959l-11.357 39.838-11.813-40.039c-6.902-23.511-41.834-21.659-46.452 2.297l-9.809 54.327c-1.722 9.544 13.041 12.206 14.762 2.664l9.771-54.125c1.697-8.806 14.4-9.697 17.26-1.178l19.212 65.098c2.052 6.952 12.392 7 14.406-.066l18.46-64.752c3.686-6.861 15.122-10.034 17.348.876l19.858 103.918c1.59 8.311-11.26 10.741-12.842 2.454l-10.666-55.815c-1.449-7.581-12.464-8.072-14.58-.648l-16.021 56.197c-3.184 7.036-14.111 9.094-17.08.25l-16.648-56.417c-2.184-7.41-13.203-6.81-14.574.791l-10.031 55.578c-1.474 8.169-14.38 6.057-12.867-2.323l1.906-10.561c1.722-9.543-13.041-12.206-14.762-2.664l-1.906 10.561c-.96 5.319.136 10.54 2.712 14.852l-101.488 101.485c-42.209-44.853-65.374-103.153-65.374-165.019zm481.075 21.065c-.007.059-.013.117-.018.176-5.222 59.801-32.508 115.224-76.834 156.06-44.587 41.077-102.554 63.699-163.223 63.699-61.866 0-120.166-23.165-165.019-65.374l102.656-102.656c.93.304 1.89.553 2.879.732 11.437 2.068 22.949-5.88 25.022-17.369l4.411-24.44 7.627 25.849c6.456 22.484 39.573 22.283 45.96-.163l7.366-25.839 4.741 24.81c5.12 26.791 47.667 19.947 42.309-8.085l-18.612-97.4c.404-.278.801-.6 1.186-.984l115.092-115.093c38.395 40.813 61.303 93.351 64.87 149.495.005.067.01.135.016.202 1.601 17.644-.408 36.197-.429 36.38z"/><path d="m158.284 234.527h-31.913c-11.876 0-21.537 9.662-21.537 21.538s9.661 21.538 21.537 21.538h4.969c-3.552 5.682-9.418 10.265-19.102 10.265-17.535 0-31.802-14.267-31.802-31.802s14.267-31.802 31.802-31.802c6.375 0 12.519 1.874 17.766 5.418 22.957 15.517 46.792-20.37 24.115-35.692-12.396-8.375-26.877-12.801-41.881-12.801-41.287 0-74.877 33.59-74.877 74.877s33.59 74.877 74.877 74.877c19.277 0 36.646-7.572 48.906-21.32 12.044-13.507 18.678-32.527 18.678-53.557 0-11.877-9.662-21.539-21.538-21.539zm-8.335 65.111c-9.512 10.666-22.552 16.304-37.711 16.304-33.017 0-59.877-26.861-59.877-59.877s26.86-59.877 59.877-59.877c11.999 0 23.577 3.538 33.482 10.23 7.16 4.836-.562 15.4-7.319 10.834-7.737-5.227-16.784-7.989-26.163-7.989-25.807 0-46.802 20.996-46.802 46.802s20.995 46.802 46.802 46.802c18.739 0 32.417-11.254 37.523-30.875.654-5.505-1.766-8.635-7.258-9.389h-16.133c-3.604 0-6.537-2.933-6.537-6.538s2.933-6.538 6.537-6.538h31.913c3.605 0 6.538 2.933 6.538 6.538.001 17.343-5.281 32.818-14.872 43.573z"/><path d="m454.346 207.44c-3.194 2.638-3.646 7.365-1.008 10.559 8.83 10.692 13.693 24.211 13.693 38.065 0 33.017-26.86 59.877-59.877 59.877s-59.878-26.861-59.878-59.877 26.861-59.877 59.878-59.877c7.278 0 14.414 1.31 21.209 3.895 9.064 3.442 14.396-10.573 5.332-14.021-8.504-3.234-17.434-4.874-26.541-4.874-41.288 0-74.878 33.59-74.878 74.877s33.59 74.877 74.878 74.877c41.287 0 74.877-33.59 74.877-74.877 0-17.332-6.083-34.243-17.127-47.617-2.637-3.193-7.365-3.644-10.558-1.007z"/><path d="m360.352 256.065c0 25.807 20.996 46.802 46.803 46.802s46.803-20.996 46.803-46.802-20.996-46.802-46.803-46.802-46.803 20.995-46.803 46.802zm78.605 0c0 17.536-14.267 31.802-31.803 31.802s-31.803-14.267-31.803-31.802 14.267-31.802 31.803-31.802 31.803 14.266 31.803 31.802z"/></g></svg>