<?xml version="1.0" encoding="UTF-8" standalone="no"?>
<svg
   xmlns:dc="http://purl.org/dc/elements/1.1/"
   xmlns:cc="http://creativecommons.org/ns#"
   xmlns:rdf="http://www.w3.org/1999/02/22-rdf-syntax-ns#"
   xmlns:svg="http://www.w3.org/2000/svg"
   xmlns="http://www.w3.org/2000/svg"
   xmlns:sodipodi="http://sodipodi.sourceforge.net/DTD/sodipodi-0.dtd"
   xmlns:inkscape="http://www.inkscape.org/namespaces/inkscape"
   id="Capa_1"
   enable-background="new 0 0 511.99 511.99"
   height="512"
   viewBox="0 0 511.99 511.99"
   width="512"
   version="1.1"
   sodipodi:docname="package.svg"
   inkscape:version="1.0.2-2 (e86c870879, 2021-01-15)">
  <metadata
     id="metadata2029">
    <rdf:RDF>
      <cc:Work
         rdf:about="">
        <dc:format>image/svg+xml</dc:format>
        <dc:type
           rdf:resource="http://purl.org/dc/dcmitype/StillImage" />
      </cc:Work>
    </rdf:RDF>
  </metadata>
  <defs
     id="defs2027" />
  <sodipodi:namedview
     pagecolor="#ffffff"
     bordercolor="#666666"
     borderopacity="1"
     objecttolerance="10"
     gridtolerance="10"
     guidetolerance="10"
     inkscape:pageopacity="0"
     inkscape:pageshadow="2"
     inkscape:window-width="1366"
     inkscape:window-height="705"
     id="namedview2025"
     showgrid="false"
     inkscape:zoom="1.0507812"
     inkscape:cx="256"
     inkscape:cy="256"
     inkscape:window-x="-8"
     inkscape:window-y="-8"
     inkscape:window-maximized="1"
     inkscape:current-layer="Capa_1" />
  <g
     id="g2022"
     style="fill:#ff9f0f;fill-opacity:1">
    <path
       d="m446.822 213.631-190.827-63.256-190.827 63.256-65.158 103.498 59.984 19.884v110.007l196 64.97 196-64.97v-110.007l59.984-19.884zm-57.5 12.545-133.327 44.195-133.327-44.195 133.327-44.195zm-343.52 74.527 35.627-56.592 151.67 50.276-35.626 56.591zm44.193 46.255 120.345 39.892 30.655-48.693v137.256l-151-50.054zm181 128.454v-137.256l30.655 48.693 120.345-39.892v78.401zm43.522-124.433-35.626-56.591 151.67-50.276 35.627 56.592z"
       id="path2014"
       style="fill:#ff9f0f;fill-opacity:1" />
    <path
       d="m240.995 0h30v100.174h-30z"
       id="path2016"
       style="fill:#ff9f0f;fill-opacity:1" />
    <path
       d="m122.952 31.63h30v100.174h-30z"
       transform="matrix(.866 -.5 .5 .866 -22.376 79.924)"
       id="path2018"
       style="fill:#ff9f0f;fill-opacity:1" />
    <path
       d="m323.951 66.717h100.174v30h-100.174z"
       transform="matrix(.5 -.866 .866 .5 116.249 364.784)"
       id="path2020"
       style="fill:#ff9f0f;fill-opacity:1" />
  </g>
</svg>
